<?xml version="1.0" encoding="utf-8"?>
<!-- Generator: Adobe Illustrator 26.2.1, SVG Export Plug-In . SVG Version: 6.00 Build 0)  -->
<svg version="1.1" id="Layer_1" xmlns="http://www.w3.org/2000/svg" xmlns:xlink="http://www.w3.org/1999/xlink" x="0px" y="0px"
	 viewBox="0 0 2000 2000" style="enable-background:new 0 0 2000 2000;" xml:space="preserve">
<style type="text/css">
	.st0{fill:#495E90;}
	.st1{fill:#909ABC;}
	.st2{fill:#6C7CA6;}
</style>
<path class="st0" d="M454.53,697.48h20.33v263.5h-20.33v-119.7H286.64v119.7h-20.32v-263.5h20.32v125.34h167.89V697.48z
	 M982.4,715.92h95.24v245.07h20.32V715.92h95.24v-18.06H982.4V715.92z M1718.32,941.78v-244.3h-20.33v263.5h168.66v-19.2H1718.32z
	 M1402.52,697.48l-118.19,263.5h21.82l36.75-83.57h-0.24l70.77-160.36l107.66,243.92h21.82l-118.18-263.5H1402.52z"/>
<rect x="658.15" y="941.78" class="st1" width="181.8" height="19.2"/>
<rect x="658.15" y="822.83" class="st2" width="181.8" height="19.2"/>
<polygon class="st0" points="1343.7,860.7 1363.07,860.7 1463.84,860.7 1483.57,860.7 1475.46,842.03 1455.85,842.03 
	1371.05,842.03 1351.81,842.03 "/>
<rect x="658.15" y="697.48" class="st0" width="181.8" height="19.2"/>
</svg>
